<svg width="470" height="431" viewBox="0 0 470 431" fill="none" xmlns="http://www.w3.org/2000/svg">
<path fill-rule="evenodd" clip-rule="evenodd" d="M61.7657 430.323C53.5077 429.649 44.7333 428.122 36.133 423.739C23.6811 417.395 13.5574 407.271 7.21287 394.819C2.83078 386.219 1.30365 377.445 0.628943 369.187C-0.00109679 361.475 -0.000561609 351.207 3.66805e-05 340.908L7.20226e-05 339.952L3.66805e-05 338.997C-0.000561609 328.698 -0.00109679 319.429 0.628943 311.718C1.30365 303.46 2.83078 294.686 7.21287 286.085C13.5574 273.633 23.6811 263.51 36.133 257.165C44.7333 252.783 53.5077 251.256 61.7657 250.581C69.477 249.951 78.7453 249.952 89.0447 249.952C173.243 249.956 297.441 249.95 381.64 249.952C391.665 249.952 400.694 249.965 408.234 250.581C416.492 251.256 425.267 252.783 433.867 257.165C446.319 263.51 456.443 273.634 462.787 286.085C467.169 294.686 468.696 303.46 469.371 311.718C470.001 319.429 470.001 328.698 470 338.997V340.908C470.001 351.207 470.001 361.475 469.371 369.187C468.696 377.445 467.169 386.219 462.787 394.819C456.443 407.271 446.319 417.395 433.867 423.739C425.267 428.122 416.492 429.649 408.234 430.323C400.694 430.94 391.664 430.953 381.638 430.952C297.44 430.952 173.242 430.952 89.0446 430.952C78.7455 430.953 69.4768 430.953 61.7657 430.323Z" fill="#E2E1E5"/>
<path fill-rule="evenodd" clip-rule="evenodd" d="M22.3225 364.547C22.1176 360.459 22.0429 355.811 22.0156 350.442C22 347.36 22 344.04 22 340.452C22 336.864 22 333.545 22.0156 330.463C22.0429 325.094 22.1176 320.446 22.3225 316.358C22.7858 307.112 23.9149 300.728 26.6663 295.328C30.7709 287.273 37.3203 280.723 45.376 276.619C50.776 273.867 57.1601 272.738 66.4057 272.275C70.4937 272.07 75.1412 271.995 80.5104 271.968C83.5923 271.952 86.9119 271.952 90.5 271.952C94.0881 271.952 97.4077 271.952 100.49 271.968C105.859 271.995 110.506 272.07 114.594 272.275C123.84 272.738 130.224 273.867 135.624 276.619C143.68 280.723 150.229 287.273 154.334 295.328C157.085 300.728 158.214 307.112 158.678 316.358C158.882 320.446 158.957 325.094 158.984 330.463C159 333.545 159 336.864 159 340.452C159 344.04 159 347.36 158.984 350.442C158.957 355.811 158.882 360.459 158.678 364.547C158.214 373.792 157.085 380.176 154.334 385.576C150.229 393.632 143.68 400.181 135.624 404.286C130.224 407.037 123.84 408.167 114.594 408.63C110.506 408.835 105.859 408.909 100.49 408.937C97.4077 408.952 94.0881 408.952 90.5 408.952C86.9119 408.952 83.5923 408.952 80.5104 408.937C75.1412 408.909 70.4937 408.835 66.4057 408.63C57.1601 408.167 50.776 407.037 45.376 404.286C37.3203 400.181 30.7709 393.632 26.6663 385.576C23.9149 380.176 22.7858 373.792 22.3225 364.547Z" fill="white"/>
<path fill-rule="evenodd" clip-rule="evenodd" d="M311.322 364.547C311.118 360.459 311.043 355.811 311.016 350.442C311 347.36 311 344.04 311 340.452C311 336.864 311 333.545 311.016 330.463C311.043 325.094 311.118 320.446 311.322 316.358C311.786 307.112 312.915 300.728 315.666 295.328C319.771 287.273 326.32 280.723 334.376 276.619C339.776 273.867 346.16 272.738 355.406 272.275C359.494 272.07 364.141 271.995 369.51 271.968C372.592 271.952 375.912 271.952 379.5 271.952C383.088 271.952 386.408 271.952 389.49 271.968C394.859 271.995 399.506 272.07 403.594 272.275C412.84 272.738 419.224 273.867 424.624 276.619C432.68 280.723 439.229 287.273 443.334 295.328C446.085 300.728 447.214 307.112 447.678 316.358C447.882 320.446 447.957 325.094 447.984 330.463C448 333.545 448 336.864 448 340.452C448 344.04 448 347.36 447.984 350.442C447.957 355.811 447.882 360.459 447.678 364.547C447.214 373.792 446.085 380.176 443.334 385.576C439.229 393.632 432.68 400.181 424.624 404.286C419.224 407.037 412.84 408.167 403.594 408.63C399.506 408.835 394.859 408.909 389.49 408.937C386.408 408.952 383.088 408.952 379.5 408.952C375.912 408.952 372.592 408.952 369.51 408.937C364.141 408.909 359.494 408.835 355.406 408.63C346.16 408.167 339.776 407.037 334.376 404.286C326.32 400.181 319.771 393.632 315.666 385.576C312.915 380.176 311.786 373.792 311.322 364.547Z" fill="white"/>
<path fill-rule="evenodd" clip-rule="evenodd" d="M75.765 301.381C75.765 299.014 77.6821 297.095 80.0471 297.095H100.03C102.395 297.095 104.312 299.014 104.312 301.381V316.748C104.312 317.885 103.861 318.975 103.058 319.779L93.0665 329.779C91.3943 331.452 88.683 331.452 87.0107 329.779L77.0192 319.779C76.2162 318.975 75.765 317.885 75.765 316.748V301.381ZM80.0471 382.808C77.6821 382.808 75.765 380.889 75.765 378.522V363.155C75.765 362.018 76.2162 360.928 77.0192 360.125L87.0107 350.125C88.683 348.451 91.3943 348.451 93.0665 350.125L103.058 360.125C103.861 360.928 104.312 362.018 104.312 363.155V378.522C104.312 380.889 102.395 382.808 100.03 382.808H80.0471ZM128.577 325.666C130.942 325.666 132.859 327.585 132.859 329.952V349.952C132.859 352.318 130.942 354.237 128.577 354.237H113.223C112.087 354.237 110.998 353.786 110.195 352.982L100.203 342.982C98.5311 341.309 98.5311 338.595 100.203 336.921L110.195 326.922C110.998 326.118 112.087 325.666 113.223 325.666H128.577ZM47.2178 329.952C47.2178 327.585 49.1349 325.666 51.4998 325.666H66.8545C67.9902 325.666 69.0793 326.118 69.8824 326.922L79.8739 336.921C81.5462 338.595 81.5462 341.309 79.8739 342.982L69.8824 352.982C69.0793 353.786 67.9902 354.237 66.8545 354.237H51.4998C49.1349 354.237 47.2178 352.318 47.2178 349.952V329.952Z" fill="#C3C2CA"/>
<path fill-rule="evenodd" clip-rule="evenodd" d="M350.527 324.238C341.856 324.238 334.826 331.273 334.826 339.952C334.826 348.631 341.856 355.666 350.527 355.666C359.199 355.666 366.228 348.631 366.228 339.952C366.228 331.273 359.199 324.238 350.527 324.238Z" fill="#FFA722"/>
<path fill-rule="evenodd" clip-rule="evenodd" d="M363.374 368.523C363.374 377.201 370.404 384.237 379.075 384.237C387.746 384.237 394.776 377.201 394.776 368.523C394.776 359.844 387.746 352.809 379.075 352.809C370.404 352.809 363.374 359.844 363.374 368.523Z" fill="#26E1ED"/>
<path fill-rule="evenodd" clip-rule="evenodd" d="M423.323 339.952C423.323 331.273 416.293 324.238 407.622 324.238C398.95 324.238 391.921 331.273 391.921 339.952C391.921 348.631 398.95 355.666 407.622 355.666C416.293 355.666 423.323 348.631 423.323 339.952Z" fill="#FF3815"/>
<path fill-rule="evenodd" clip-rule="evenodd" d="M379.075 295.667C370.404 295.667 363.374 302.702 363.374 311.381C363.374 320.06 370.404 327.095 379.075 327.095C387.746 327.095 394.776 320.06 394.776 311.381C394.776 302.702 387.746 295.667 379.075 295.667Z" fill="#6100D4"/>
<path d="M234.999 242.953C234.999 242.953 216.944 74.0924 268 31.4523C359 -44.5477 462.5 59.9523 376 134.452C292.616 206.269 166.5 134.452 145 37.4522" stroke="#716F83" stroke-width="10" stroke-linecap="round" stroke-linejoin="round"/>
<rect x="195" y="370.952" width="35" height="15" rx="6" fill="#716F83"/>
<rect x="240" y="370.952" width="35" height="15" rx="6" fill="#716F83"/>
<path d="M222 243.952C222 241.743 223.791 239.952 226 239.952H244C246.209 239.952 248 241.743 248 243.952V249.952H222V243.952Z" fill="#504E62"/>
</svg>
