<svg width="160" height="55" viewBox="0 0 160 55" fill="none" xmlns="http://www.w3.org/2000/svg">
<path fill-rule="evenodd" clip-rule="evenodd" d="M158.335 20.4255L158.342 20.4387C160.003 23.7653 160.002 27.4525 160 32.5679C160 32.7495 160 32.933 160 33.1183L160 33.3726L160 33.6703C160.002 38.784 160.003 42.4502 158.426 45.7282L158.414 45.7529L158.402 45.7773C156.897 48.7488 154.535 51.0649 151.635 52.5567L151.632 52.5583C148.298 54.2671 144.6 54.2655 139.494 54.2634C139.311 54.2633 139.126 54.2632 138.939 54.2632L138.744 54.2633C138.623 54.2633 138.504 54.2633 138.385 54.2634C133.281 54.2655 129.584 54.2671 126.252 52.561C124.381 51.6108 122.77 50.3196 121.461 48.7674C118.505 52.105 114.195 54.2297 109.394 54.2297H99.3337C94.5212 54.2297 90.2071 52.1151 87.2598 48.7808C85.9369 50.3406 84.3183 51.6134 82.4842 52.5567L82.481 52.5583C79.1476 54.2671 75.4497 54.2655 70.3434 54.2634C70.1603 54.2633 69.9755 54.2632 69.7888 54.2632C69.6021 54.2632 69.4173 54.2633 69.2342 54.2634C64.1338 54.2655 60.4386 54.2671 57.1082 52.5643C56.3863 52.2023 55.7008 51.7869 55.0558 51.3234C54.8443 51.6223 54.599 51.9166 54.3144 52.2014C52.2441 54.2734 49.6735 54.2667 48.4569 54.2635C48.4113 54.2634 48.3676 54.2632 48.326 54.2632H19.4512L19.1191 54.2633C16.022 54.264 13.9722 54.2644 11.9136 53.7014C6.39472 52.2443 2.01747 47.8633 0.561782 42.3398C-0.000688494 40.2796 -0.000234667 38.2282 0.00045039 35.1287L0.00049932 34.7964V20.0285C0.00049932 19.9868 0.000385138 19.9431 0.000265845 19.8975C-0.00291605 18.6799 -0.00963925 16.1071 2.06064 14.0351C4.13093 11.9631 6.70154 11.9699 7.91818 11.973C7.96374 11.9732 8.0074 11.9733 8.04906 11.9733H48.326C48.3453 11.9733 48.365 11.9732 48.3852 11.9732C48.4085 11.9732 48.4324 11.9731 48.4568 11.973C49.6735 11.9699 52.2441 11.9631 54.3144 14.0351C54.5975 14.3185 54.8418 14.6112 55.0525 14.9085C55.7009 14.4459 56.388 14.0333 57.1085 13.6721C60.4388 11.9694 64.134 11.971 69.2342 11.9731H69.2378C69.4197 11.9732 69.6033 11.9733 69.7888 11.9733C69.9756 11.9733 70.1606 11.9732 70.3437 11.9731H70.3472H70.3506C75.4494 11.9709 79.1407 11.9694 82.4361 13.6388L82.4374 13.6394C84.3111 14.5899 85.9239 15.882 87.2336 17.4355C90.1898 14.098 94.4995 11.9733 99.3002 11.9733H99.9709V8.28129C99.9709 8.23959 99.9708 8.19589 99.9706 8.15029C99.9675 6.93264 99.9607 4.3599 102.031 2.28791C104.101 0.215908 106.672 0.222637 107.889 0.225821C107.934 0.225941 107.978 0.226055 108.019 0.226055L108.141 0.22605C109.401 0.225972 110.191 0.225923 111.024 0.305277L111.039 0.306753L111.055 0.308409C118.416 1.0964 124.307 6.84698 125.315 14.1468C125.601 13.9798 125.894 13.8217 126.192 13.6722C129.522 11.9694 133.217 11.971 138.318 11.9731H138.321H138.325C138.506 11.9732 138.688 11.9733 138.872 11.9733C139.057 11.9733 139.241 11.9732 139.422 11.9731C144.533 11.9711 148.217 11.9696 151.541 13.6328L151.548 13.6361L151.554 13.6394C154.523 15.1456 156.838 17.5094 158.328 20.4123L158.335 20.4255Z" fill="#6100D4"/>
<path fill-rule="evenodd" clip-rule="evenodd" d="M108.019 6.26682C109.265 6.26682 109.888 6.26682 110.413 6.32197C115.137 6.81892 118.87 10.5552 119.367 15.2834C119.422 15.8082 119.422 16.4316 119.422 17.6784V38.1521C119.422 43.3188 115.533 47.5767 110.525 48.1544H98.1356C93.1278 47.5767 89.2394 43.3188 89.2394 38.1521V28.0831C89.2394 22.5221 93.7438 18.014 99.3002 18.014H102.654H103.995C104.944 18.014 105.418 18.014 105.713 17.7191C106.007 17.4242 106.007 16.9495 106.007 16.0002V8.28063C106.007 7.3313 106.007 6.85665 106.302 6.56173C106.597 6.26682 107.071 6.26682 108.019 6.26682ZM49.5983 48.1544C49.7857 48.1116 49.9282 48.0414 50.0434 47.9262C50.3382 47.6313 50.3382 47.1567 50.3382 46.2073V20.0278C50.3382 19.0785 50.3382 18.6039 50.0434 18.3089C49.7488 18.014 49.2745 18.014 48.326 18.014H39.171C38.2225 18.014 37.748 18.014 37.4534 18.3089C37.1588 18.6039 37.1588 19.0785 37.1588 20.0278V33.605C37.1588 34.2626 36.6257 34.7958 35.968 34.7958C35.3104 34.7958 34.7772 34.2626 34.7772 33.605V20.0278C34.7772 19.0785 34.7772 18.6039 34.4826 18.3089C34.1878 18.014 33.7135 18.014 32.765 18.014H23.3751C22.4266 18.014 22.1873 18.014 21.8925 18.3089C21.5979 18.6039 21.5979 19.0785 21.5979 20.0278V33.605C21.5979 34.2626 21.0647 34.7958 20.407 34.7958C19.7494 34.7958 19.2162 34.2626 19.2162 33.605V20.0278C19.2162 19.0785 19.2162 18.6039 18.9216 18.3089C18.6268 18.014 18.1525 18.014 17.204 18.014H8.04907C7.10056 18.014 6.6263 18.014 6.3317 18.3089C6.03687 18.6039 6.03687 19.0785 6.03687 20.0278V34.7958C6.03687 37.9171 6.03687 39.4777 6.37965 40.7582C7.31004 44.2329 10.0218 46.947 13.4937 47.8781C14.0318 48.0223 14.6194 48.106 15.3518 48.1544H49.5983ZM101.247 30.7682C100.977 31.2355 100.977 31.8628 100.977 33.1176C100.977 34.3723 100.977 34.9997 101.247 35.467C101.423 35.7732 101.677 36.0274 101.983 36.2041C102.45 36.4739 103.077 36.4739 104.331 36.4739C105.584 36.4739 106.211 36.4739 106.678 36.2041C106.984 36.0274 107.238 35.7732 107.414 35.467C107.684 34.9997 107.684 34.3723 107.684 33.1176C107.684 31.8628 107.684 31.2355 107.414 30.7682C107.238 30.462 106.984 30.2078 106.678 30.031C106.211 29.7612 105.584 29.7612 104.331 29.7612C103.077 29.7612 102.45 29.7612 101.983 30.031C101.677 30.2078 101.423 30.462 101.247 30.7682ZM123.872 22.5049C122.775 24.6588 122.775 27.4784 122.775 33.1176C122.775 38.7568 122.775 41.5764 123.872 43.7303C124.836 45.6249 126.375 47.1652 128.268 48.1306C130.421 49.2281 133.238 49.2281 138.872 49.2281C144.507 49.2281 147.324 49.2281 149.476 48.1306C151.369 47.1652 152.908 45.6249 153.873 43.7303C154.969 41.5764 154.969 38.7568 154.969 33.1176C154.969 27.4784 154.969 24.6588 153.873 22.5049C152.908 20.6103 151.369 19.0699 149.476 18.1046C148.392 17.5517 147.139 17.2773 145.442 17.1412H132.303C130.606 17.2773 129.353 17.5517 128.268 18.1046C126.375 19.0699 124.836 20.6103 123.872 22.5049ZM135.786 30.8358C135.516 31.3031 135.516 31.9305 135.516 33.1853C135.516 34.44 135.516 35.0674 135.786 35.5347C135.962 35.8409 136.216 36.0951 136.522 36.2718C136.989 36.5416 137.616 36.5416 138.87 36.5416C140.123 36.5416 140.75 36.5416 141.217 36.2718C141.523 36.0951 141.777 35.8409 141.954 35.5347C142.223 35.0674 142.223 34.44 142.223 33.1853C142.223 31.9305 142.223 31.3031 141.954 30.8358C141.777 30.5297 141.523 30.2755 141.217 30.0987C140.75 29.8289 140.123 29.8289 138.87 29.8289C137.616 29.8289 136.989 29.8289 136.522 30.0987C136.216 30.2755 135.962 30.5297 135.786 30.8358ZM76.3577 17.1418C78.0549 17.278 79.3081 17.5523 80.3923 18.1052C82.2854 19.0706 83.8245 20.611 84.7891 22.5056C85.8856 24.6595 85.8856 27.479 85.8856 33.1182C85.8856 38.7574 85.8856 41.577 84.7891 43.7309C83.8245 45.6255 82.2854 47.1659 80.3923 48.1312C78.2403 49.2287 75.423 49.2287 69.7884 49.2287C64.154 49.2287 61.3366 49.2287 59.1847 48.1312C57.2916 47.1659 55.7525 45.6255 54.7879 43.7309C53.6914 41.577 53.6914 38.7574 53.6914 33.1182C53.6914 27.479 53.6914 24.6595 54.7879 22.5056C55.7525 20.611 57.2916 19.0706 59.1847 18.1052C60.2688 17.5523 61.5218 17.278 63.219 17.1418H76.3577ZM66.7046 30.8358C66.435 31.3031 66.435 31.9305 66.435 33.1853C66.435 34.44 66.435 35.0674 66.7046 35.5347C66.8812 35.8408 67.1352 36.0951 67.4411 36.2718C67.908 36.5416 68.5348 36.5416 69.7885 36.5416C71.0422 36.5416 71.669 36.5416 72.1359 36.2718C72.442 36.0951 72.696 35.8408 72.8724 35.5347C73.142 35.0674 73.142 34.44 73.142 33.1853C73.142 31.9305 73.142 31.3031 72.8724 30.8358C72.696 30.5297 72.442 30.2755 72.1359 30.0987C71.669 29.8289 71.0422 29.8289 69.7885 29.8289C68.5348 29.8289 67.908 29.8289 67.4411 30.0987C67.1352 30.2755 66.8812 30.5297 66.7046 30.8358Z" fill="white"/>
</svg>
