<svg width="160" height="55" viewBox="0 0 160 55" fill="none" xmlns="http://www.w3.org/2000/svg">
<path fill-rule="evenodd" clip-rule="evenodd" d="M158.335 20.4261L158.342 20.4393C160.003 23.7659 160.002 27.4531 160 32.5685C160 32.7501 160 32.9336 160 33.1188L160 33.3731L160 33.6709C160.002 38.7846 160.003 42.4508 158.426 45.7288L158.414 45.7535L158.402 45.7779C156.897 48.7494 154.535 51.0655 151.635 52.5573L151.632 52.5589C148.298 54.2677 144.6 54.2661 139.494 54.264C139.311 54.2639 139.126 54.2638 138.939 54.2638L138.744 54.2639C138.623 54.2639 138.504 54.2639 138.385 54.264C133.281 54.2661 129.584 54.2677 126.252 52.5616C124.381 51.6114 122.77 50.3202 121.461 48.768C118.505 52.1056 114.195 54.2303 109.394 54.2303H99.3337C94.5212 54.2303 90.2071 52.1157 87.2598 48.7814C85.9369 50.3412 84.3183 51.614 82.4842 52.5573L82.481 52.5589C79.1476 54.2677 75.4497 54.2661 70.3434 54.264C70.1603 54.2639 69.9755 54.2638 69.7888 54.2638C69.6021 54.2638 69.4173 54.2639 69.2342 54.264C64.1338 54.2661 60.4386 54.2677 57.1082 52.5649C56.3863 52.2029 55.7008 51.7875 55.0558 51.324C54.8443 51.6229 54.599 51.9172 54.3144 52.202C52.2441 54.274 49.6735 54.2672 48.4569 54.2641C48.4113 54.2639 48.3676 54.2638 48.326 54.2638H19.4512L19.1191 54.2639C16.022 54.2646 13.9722 54.265 11.9136 53.702C6.39472 52.2449 2.01747 47.8639 0.561782 42.3404C-0.000688494 40.2802 -0.000234667 38.2288 0.00045039 35.1293L0.00049932 34.797V20.0291C0.00049932 19.9874 0.000385138 19.9437 0.000265845 19.8981C-0.00291605 18.6805 -0.00963925 16.1077 2.06064 14.0357C4.13093 11.9637 6.70154 11.9704 7.91818 11.9736C7.96374 11.9737 8.0074 11.9739 8.04906 11.9739H48.326C48.3453 11.9739 48.365 11.9738 48.3852 11.9738C48.4085 11.9737 48.4324 11.9737 48.4568 11.9736C49.6735 11.9704 52.2441 11.9637 54.3144 14.0357C54.5975 14.3191 54.8418 14.6118 55.0525 14.9091C55.7009 14.4465 56.388 14.0339 57.1085 13.6726C60.4388 11.97 64.134 11.9716 69.2342 11.9737H69.2378C69.4197 11.9738 69.6033 11.9739 69.7888 11.9739C69.9756 11.9739 70.1606 11.9738 70.3437 11.9737H70.3472H70.3506C75.4494 11.9715 79.1407 11.97 82.4361 13.6394L82.4374 13.64C84.3111 14.5905 85.9239 15.8825 87.2336 17.4361C90.1898 14.0985 94.4995 11.9739 99.3002 11.9739H99.9709V8.28188C99.9709 8.24018 99.9708 8.19648 99.9707 8.15088C99.9675 6.93323 99.9607 4.36049 102.031 2.2885C104.101 0.216495 106.672 0.223224 107.889 0.226409C107.934 0.226528 107.978 0.226643 108.019 0.226643L108.141 0.226637C109.401 0.226559 110.191 0.22651 111.024 0.305865L111.039 0.30734L111.055 0.308996C118.416 1.09698 124.307 6.84757 125.315 14.1473C125.601 13.9804 125.894 13.8222 126.192 13.6728C129.522 11.97 133.217 11.9716 138.318 11.9737H138.321H138.325C138.506 11.9738 138.688 11.9739 138.872 11.9739C139.057 11.9739 139.241 11.9738 139.422 11.9737C144.533 11.9717 148.217 11.9702 151.541 13.6334L151.548 13.6367L151.554 13.64C154.523 15.1462 156.838 17.51 158.328 20.4129L158.335 20.4261Z" fill="#ABABAB"/>
<path fill-rule="evenodd" clip-rule="evenodd" d="M108.019 6.2674C109.265 6.2674 109.888 6.2674 110.413 6.32256C115.137 6.81951 118.87 10.5558 119.367 15.2839C119.422 15.8087 119.422 16.4322 119.422 17.679V38.1527C119.422 43.3194 115.533 47.5772 110.525 48.155H98.1356C93.1278 47.5772 89.2394 43.3194 89.2394 38.1527V28.0837C89.2394 22.5227 93.7438 18.0146 99.3002 18.0146H102.654H103.995C104.944 18.0146 105.418 18.0146 105.713 17.7197C106.007 17.4248 106.007 16.9501 106.007 16.0008V8.28121C106.007 7.33189 106.007 6.85723 106.302 6.56232C106.597 6.2674 107.071 6.2674 108.019 6.2674ZM49.5983 48.155C49.7857 48.1122 49.9282 48.042 50.0434 47.9268C50.3382 47.6319 50.3382 47.1572 50.3382 46.2079V20.0284C50.3382 19.0791 50.3382 18.6044 50.0434 18.3095C49.7488 18.0146 49.2745 18.0146 48.326 18.0146H39.171C38.2225 18.0146 37.748 18.0146 37.4534 18.3095C37.1588 18.6044 37.1588 19.0791 37.1588 20.0284V33.6055C37.1588 34.2632 36.6257 34.7964 35.968 34.7964C35.3104 34.7964 34.7772 34.2632 34.7772 33.6055V20.0284C34.7772 19.0791 34.7772 18.6044 34.4826 18.3095C34.1878 18.0146 33.7135 18.0146 32.765 18.0146H23.3751C22.4266 18.0146 22.1873 18.0146 21.8925 18.3095C21.5979 18.6044 21.5979 19.0791 21.5979 20.0284V33.6055C21.5979 34.2632 21.0647 34.7964 20.407 34.7964C19.7494 34.7964 19.2162 34.2632 19.2162 33.6055V20.0284C19.2162 19.0791 19.2162 18.6044 18.9216 18.3095C18.6268 18.0146 18.1525 18.0146 17.204 18.0146H8.04907C7.10056 18.0146 6.6263 18.0146 6.3317 18.3095C6.03687 18.6044 6.03687 19.0791 6.03687 20.0284V34.7964C6.03687 37.9177 6.03687 39.4783 6.37965 40.7588C7.31004 44.2335 10.0218 46.9476 13.4937 47.8786C14.0318 48.0229 14.6194 48.1066 15.3518 48.155H49.5983ZM101.247 30.7687C100.977 31.236 100.977 31.8634 100.977 33.1182C100.977 34.3729 100.977 35.0003 101.247 35.4676C101.423 35.7738 101.677 36.028 101.983 36.2047C102.45 36.4745 103.077 36.4745 104.331 36.4745C105.584 36.4745 106.211 36.4745 106.678 36.2047C106.984 36.028 107.238 35.7738 107.414 35.4676C107.684 35.0003 107.684 34.3729 107.684 33.1182C107.684 31.8634 107.684 31.236 107.414 30.7687C107.238 30.4626 106.984 30.2084 106.678 30.0316C106.211 29.7618 105.584 29.7618 104.331 29.7618C103.077 29.7618 102.45 29.7618 101.983 30.0316C101.677 30.2084 101.423 30.4626 101.247 30.7687ZM123.872 22.5055C122.775 24.6594 122.775 27.479 122.775 33.1182C122.775 38.7574 122.775 41.577 123.872 43.7309C124.836 45.6255 126.375 47.1658 128.268 48.1312C130.421 49.2286 133.238 49.2286 138.872 49.2286C144.507 49.2286 147.324 49.2286 149.476 48.1312C151.369 47.1658 152.908 45.6255 153.873 43.7309C154.969 41.577 154.969 38.7574 154.969 33.1182C154.969 27.479 154.969 24.6594 153.873 22.5055C152.908 20.6109 151.369 19.0705 149.476 18.1052C148.392 17.5522 147.139 17.2779 145.442 17.1418H132.303C130.606 17.2779 129.353 17.5522 128.268 18.1052C126.375 19.0705 124.836 20.6109 123.872 22.5055ZM135.786 30.8364C135.516 31.3037 135.516 31.9311 135.516 33.1859C135.516 34.4406 135.516 35.068 135.786 35.5353C135.962 35.8414 136.216 36.0957 136.522 36.2724C136.989 36.5422 137.616 36.5422 138.87 36.5422C140.123 36.5422 140.75 36.5422 141.217 36.2724C141.523 36.0957 141.777 35.8414 141.954 35.5353C142.223 35.068 142.223 34.4406 142.223 33.1859C142.223 31.9311 142.223 31.3037 141.954 30.8364C141.777 30.5303 141.523 30.2761 141.217 30.0993C140.75 29.8295 140.123 29.8295 138.87 29.8295C137.616 29.8295 136.989 29.8295 136.522 30.0993C136.216 30.2761 135.962 30.5303 135.786 30.8364ZM76.3577 17.1424C78.0549 17.2786 79.3081 17.5529 80.3923 18.1058C82.2854 19.0712 83.8245 20.6115 84.7891 22.5062C85.8856 24.66 85.8856 27.4796 85.8856 33.1188C85.8856 38.758 85.8856 41.5776 84.7891 43.7315C83.8245 45.6261 82.2854 47.1665 80.3923 48.1318C78.2403 49.2293 75.423 49.2293 69.7884 49.2293C64.154 49.2293 61.3366 49.2293 59.1847 48.1318C57.2916 47.1665 55.7525 45.6261 54.7879 43.7315C53.6914 41.5776 53.6914 38.758 53.6914 33.1188C53.6914 27.4796 53.6914 24.66 54.7879 22.5062C55.7525 20.6115 57.2916 19.0712 59.1847 18.1058C60.2688 17.5529 61.5218 17.2786 63.219 17.1424H76.3577ZM66.7046 30.8364C66.435 31.3037 66.435 31.9311 66.435 33.1859C66.435 34.4406 66.435 35.068 66.7046 35.5353C66.8812 35.8414 67.1352 36.0957 67.4411 36.2724C67.908 36.5422 68.5348 36.5422 69.7885 36.5422C71.0422 36.5422 71.669 36.5422 72.1359 36.2724C72.442 36.0957 72.696 35.8414 72.8724 35.5353C73.142 35.068 73.142 34.4406 73.142 33.1859C73.142 31.9311 73.142 31.3037 72.8724 30.8364C72.696 30.5303 72.442 30.2761 72.1359 30.0993C71.669 29.8295 71.0422 29.8295 69.7885 29.8295C68.5348 29.8295 67.908 29.8295 67.4411 30.0993C67.1352 30.2761 66.8812 30.5303 66.7046 30.8364Z" fill="white"/>
</svg>
