<svg width="100" height="40" viewBox="0 0 100 40" fill="none" xmlns="http://www.w3.org/2000/svg">
<path d="M3 10.9994H52L55 12.9994L64 9.49941L65.5 2.99941L73.25 4.49941L77.5 10.9994L97 11.9994V31.9994L81 32.9994L76 30.4994L73.25 31.9994H61.375L55 30.4994L49.5 31.9994H37.625H31.6875H25.75L3.5 30.4994L3 10.9994Z" fill="white"/>
<path fill-rule="evenodd" clip-rule="evenodd" d="M98.9635 13.6327L98.9593 13.6244L98.9551 13.6161C98.0235 11.8018 96.5771 10.3244 94.7215 9.38309L94.7174 9.38101L94.7133 9.37896C92.6359 8.33943 90.3333 8.34035 87.1389 8.34164L86.7952 8.34173L86.453 8.34163H86.4508H86.4486C83.2608 8.34029 80.9513 8.33932 78.8698 9.40357C78.6835 9.49697 78.5009 9.59584 78.322 9.70016C77.6916 5.1378 74.0102 1.54369 69.4092 1.0512L69.3995 1.05016L69.3898 1.04924C68.8695 0.999642 68.3753 0.999673 67.5881 0.999722L67.5122 0.999725L67.4304 0.999579C66.67 0.997588 65.0633 0.993383 63.7694 2.28838C62.4755 3.58338 62.4797 5.19134 62.4817 5.95237L62.4818 6.03424V8.34173H62.0626C59.0622 8.34173 56.3687 9.66966 54.521 11.7556C53.7025 10.7847 52.6944 9.97713 51.5234 9.38309L51.5225 9.38268C49.4629 8.3393 47.1559 8.34028 43.9691 8.34163H43.967H43.9648L43.618 8.34173L43.2736 8.34163H43.2714C40.0837 8.34029 37.7743 8.33932 35.6928 9.40347C35.2425 9.62927 34.8131 9.88711 34.4078 10.1763C34.2761 9.99043 34.1234 9.80748 33.9465 9.63039C32.6526 8.33539 31.0459 8.33959 30.2855 8.34159L30.2408 8.34169L30.2037 8.34173H5.03066L4.94886 8.34159C4.18846 8.33959 2.58183 8.33539 1.2879 9.63039C-0.0060246 10.9254 -0.00182253 12.5334 0.000166153 13.2944L0.000312075 13.3763V22.6062L0.000281494 22.8139C-0.000146666 24.7511 -0.000430316 26.0332 0.351113 27.3208C1.26092 30.773 3.9967 33.5111 7.446 34.4218C8.73262 34.7737 10.0137 34.7734 11.9494 34.773H11.9494L12.157 34.773H30.2037L30.2855 34.7731C31.0459 34.7751 32.6526 34.7793 33.9465 33.4843C34.1244 33.3063 34.2777 33.1224 34.4099 32.9355C34.813 33.2252 35.2414 33.4849 35.6926 33.7111C37.7741 34.7754 40.0836 34.7744 43.2714 34.7731L43.618 34.773L43.9646 34.7731C47.1561 34.7744 49.4673 34.7754 51.5507 33.7074L51.5527 33.7064C52.6989 33.1168 53.7106 32.3213 54.5374 31.3464C56.3794 33.4304 59.0758 34.752 62.0836 34.752H68.3715C71.372 34.752 74.0655 33.424 75.9131 31.3381C76.731 32.3082 77.738 33.1152 78.9077 33.7091C80.9903 34.7754 83.3007 34.7744 86.4905 34.7731L86.7149 34.773L86.8371 34.773L87.1837 34.7731C90.3752 34.7744 92.6863 34.7754 94.7697 33.7074L94.7717 33.7064C96.5845 32.774 98.0607 31.3265 99.0013 29.4692L99.009 29.454L99.0164 29.4386C100.002 27.3898 100.001 25.0984 99.9999 21.9024L99.9998 21.7163L99.9998 21.5573L99.9999 21.2134C100.001 18.0162 100.002 15.7117 98.9635 13.6327ZM69.0079 4.80966C68.6801 4.77518 68.2909 4.77518 67.5122 4.77518C66.9194 4.77518 66.623 4.77518 66.4389 4.95951C66.2546 5.14383 66.2546 5.44049 66.2546 6.03382V10.8586C66.2546 11.4519 66.2546 11.7485 66.0704 11.9329C65.8863 12.1172 65.5899 12.1172 64.9969 12.1172H64.1586H62.0627C58.5899 12.1172 55.7747 14.9347 55.7747 18.4103V24.7035C55.7747 27.9327 58.2049 30.5938 61.3348 30.9549H69.0784C72.2083 30.5938 74.6385 27.9327 74.6385 24.7035V11.9074C74.6385 11.1282 74.6385 10.7385 74.6041 10.4105C74.2938 7.45544 71.9605 5.12025 69.0079 4.80966ZM31.2771 30.8123C31.2052 30.8843 31.1161 30.9282 30.9989 30.9549H9.59488C9.13714 30.9247 8.76989 30.8724 8.43361 30.7822C6.26366 30.2003 4.5688 28.504 3.98731 26.3323C3.77307 25.532 3.77307 24.5566 3.77307 22.6058V13.3758C3.77307 12.7825 3.77307 12.4858 3.95734 12.3015C4.14147 12.1172 4.43788 12.1172 5.0307 12.1172H10.7526C11.3454 12.1172 11.6418 12.1172 11.8261 12.3015C12.0102 12.4858 12.0102 12.7825 12.0102 13.3758V21.8615C12.0102 22.2726 12.3434 22.6058 12.7544 22.6058C13.1655 22.6058 13.4987 22.2726 13.4987 21.8615V13.3758C13.4987 12.7825 13.4987 12.4858 13.6828 12.3015C13.8671 12.1172 14.0167 12.1172 14.6095 12.1172H20.4782C21.071 12.1172 21.3674 12.1172 21.5517 12.3015C21.7358 12.4858 21.7358 12.7825 21.7358 13.3758V21.8615C21.7358 22.2726 22.069 22.6058 22.4801 22.6058C22.8911 22.6058 23.2243 22.2726 23.2243 21.8615V13.3758C23.2243 12.7825 23.2243 12.4858 23.4084 12.3015C23.5926 12.1172 23.8891 12.1172 24.4819 12.1172H30.2038C30.7966 12.1172 31.093 12.1172 31.2771 12.3015C31.4614 12.4858 31.4614 12.7825 31.4614 13.3758V29.738C31.4614 30.3313 31.4614 30.628 31.2771 30.8123ZM63.1106 21.5569C63.1106 20.7727 63.1106 20.3806 63.2791 20.0885C63.3896 19.8972 63.5483 19.7383 63.7395 19.6278C64.0313 19.4592 64.4231 19.4592 65.2066 19.4592C65.9901 19.4592 66.3819 19.4592 66.6737 19.6278C66.865 19.7383 67.0238 19.8972 67.1341 20.0885C67.3026 20.3806 67.3026 20.7727 67.3026 21.5569C67.3026 22.3411 67.3026 22.7333 67.1341 23.0253C67.0238 23.2167 66.865 23.3755 66.6737 23.486C66.3819 23.6546 65.9901 23.6546 65.2066 23.6546C64.4231 23.6546 64.0313 23.6546 63.7395 23.486C63.5483 23.3755 63.3896 23.2167 63.2791 23.0253C63.1106 22.7333 63.1106 22.3411 63.1106 21.5569ZM76.7345 21.5569C76.7345 18.0324 76.7345 16.2702 77.4198 14.924C78.0227 13.7399 78.9846 12.7771 80.1678 12.1738C80.8455 11.8282 81.6286 11.6568 82.6894 11.5717H90.9011C91.9618 11.6568 92.7449 11.8282 93.4227 12.1738C94.6057 12.7771 95.5677 13.7399 96.1705 14.924C96.8558 16.2702 96.8558 18.0324 96.8558 21.5569C96.8558 25.0814 96.8558 26.8437 96.1705 28.1898C95.5677 29.374 94.6057 30.3367 93.4227 30.94C92.0776 31.626 90.3167 31.626 86.7952 31.626C83.2736 31.626 81.5129 31.626 80.1678 30.94C78.9846 30.3367 78.0227 29.374 77.4198 28.1898C76.7345 26.8437 76.7345 25.0814 76.7345 21.5569ZM84.6977 21.5992C84.6977 20.815 84.6977 20.4229 84.8662 20.1308C84.9766 19.9395 85.1353 19.7806 85.3265 19.6701C85.6183 19.5015 86.0101 19.5015 86.7936 19.5015C87.5772 19.5015 87.9689 19.5015 88.2607 19.6701C88.452 19.7806 88.6108 19.9395 88.7211 20.1308C88.8896 20.4229 88.8896 20.815 88.8896 21.5992C88.8896 22.3834 88.8896 22.7756 88.7211 23.0676C88.6108 23.259 88.452 23.4178 88.2607 23.5283C87.9689 23.6969 87.5772 23.6969 86.7936 23.6969C86.0101 23.6969 85.6183 23.6969 85.3265 23.5283C85.1353 23.4178 84.9766 23.259 84.8662 23.0676C84.6977 22.7756 84.6977 22.3834 84.6977 21.5992ZM50.2452 12.1742C49.5676 11.8286 48.7844 11.6572 47.7236 11.5721H39.5119C38.4512 11.6572 37.668 11.8286 36.9905 12.1742C35.8073 12.7776 34.8453 13.7403 34.2425 14.9244C33.5572 16.2706 33.5572 18.0329 33.5572 21.5573C33.5572 25.0818 33.5572 26.8441 34.2425 28.1903C34.8453 29.3744 35.8073 30.3371 36.9905 30.9405C38.3354 31.6264 40.0963 31.6264 43.6178 31.6264C47.1394 31.6264 48.9002 31.6264 50.2452 30.9405C51.4284 30.3371 52.3903 29.3744 52.9932 28.1903C53.6785 26.8441 53.6785 25.0818 53.6785 21.5573C53.6785 18.0329 53.6785 16.2706 52.9932 14.9244C52.3903 13.7403 51.4284 12.7776 50.2452 12.1742ZM41.5219 21.5992C41.5219 20.815 41.5219 20.4229 41.6904 20.1308C41.8008 19.9395 41.9595 19.7806 42.1507 19.6701C42.4425 19.5015 42.8343 19.5015 43.6178 19.5015C44.4014 19.5015 44.7931 19.5015 45.085 19.6701C45.2763 19.7806 45.435 19.9395 45.5453 20.1308C45.7138 20.4229 45.7138 20.815 45.7138 21.5992C45.7138 22.3835 45.7138 22.7756 45.5453 23.0676C45.435 23.259 45.2763 23.4179 45.085 23.5283C44.7931 23.697 44.4014 23.697 43.6178 23.697C42.8343 23.697 42.4425 23.697 42.1507 23.5283C41.9595 23.4179 41.8008 23.259 41.6904 23.0676C41.5219 22.7756 41.5219 22.3835 41.5219 21.5992Z" fill="#FF3815"/>
</svg>
