<svg width="233" height="180" viewBox="0 0 233 180" fill="none" xmlns="http://www.w3.org/2000/svg">
<path d="M231.317 12.4953C231.317 12.4953 234.077 169.459 231.331 167.486C230.431 168.758 229.387 170.011 228.176 171.223C219.364 180.042 208.423 180.013 203.244 180C203.051 179.999 202.865 179.999 202.687 179.999H82.7891L81.3755 179.999H81.3751C68.1933 180.002 59.4691 180.004 50.7073 177.607C27.2175 171.406 8.58688 152.759 2.39108 129.25C-0.0029304 120.481 -0.000998836 111.75 0.00191694 98.5576L0.00212521 97.1432V34.2872C0.00212521 34.1097 0.00163924 33.9238 0.0011315 33.7297C-0.0124115 28.5471 -0.0410271 17.5968 8.77061 8.77789C17.5823 -0.0410681 28.5234 -0.0124253 33.7018 0.00113294C33.8957 0.00163974 34.0815 0.00212476 34.2588 0.00212476H202.687L202.94 0.00185773L203.244 0.00113294C208.423 -0.0124253 219.364 -0.0410681 228.176 8.77789C229.381 9.9839 230.42 11.2298 231.317 12.4953Z" fill="#450096"/>
<path fill-rule="evenodd" clip-rule="evenodd" d="M208.103 153.998C208.9 153.816 209.507 153.517 209.997 153.027C211.252 151.772 211.252 149.751 211.252 145.711V34.2844C211.252 30.2439 211.252 28.2236 209.997 26.9684C208.743 25.7131 206.725 25.7131 202.688 25.7131H162.722C158.685 25.7131 156.665 25.7131 155.411 26.9684C154.157 28.2236 154.157 30.2439 154.157 34.2844V93.569C154.157 95.5414 152.56 97.1404 150.589 97.1404C148.618 97.1404 147.021 95.5414 147.021 93.569V34.2844C147.021 30.2439 147.021 28.2236 145.767 26.9684C144.512 25.7131 142.493 25.7131 138.456 25.7131H98.4902C94.4531 25.7131 92.4346 25.7131 91.1797 26.9684C89.9258 28.2236 89.9258 30.2439 89.9258 34.2844V93.569C89.9258 95.5414 88.3281 97.1404 86.3574 97.1404C84.3867 97.1404 82.7891 95.5414 82.7891 93.569V34.2844C82.7891 30.2439 82.7891 28.2236 81.5352 26.9684C80.2803 25.7131 78.2617 25.7131 74.2246 25.7131H34.2588C30.2217 25.7131 28.2031 25.7131 26.9492 26.9684C25.6943 28.2236 25.6943 30.2439 25.6943 34.2844V97.1404C25.6943 110.425 25.6943 117.068 27.1533 122.518C31.1133 137.307 42.6553 148.859 57.4326 152.822C59.7227 153.436 62.2236 153.792 65.3408 153.998H208.103Z" fill="white"/>
</svg>
