<svg width="678" height="230" viewBox="0 0 678 230" fill="none" xmlns="http://www.w3.org/2000/svg">
<path fill-rule="evenodd" clip-rule="evenodd" d="M670.913 85.9759L670.941 86.0324C678.014 100.191 678.008 115.885 677.999 137.657C677.999 138.43 677.999 139.211 677.999 140L677.999 141.082L677.999 142.349C678.008 164.114 678.014 179.719 671.302 193.671L671.251 193.776L671.199 193.88C664.793 206.527 654.741 216.385 642.395 222.734L642.382 222.741C628.194 230.014 612.455 230.008 590.721 229.999C589.942 229.998 589.155 229.998 588.361 229.998L587.529 229.998C587.016 229.998 586.506 229.998 586 229.999C564.278 230.008 548.544 230.014 534.362 222.753C526.396 218.708 519.538 213.213 513.968 206.606C501.386 220.812 483.043 229.855 462.61 229.855H419.789C399.306 229.855 380.944 220.855 368.399 206.663C362.769 213.302 355.88 218.72 348.074 222.734L348.06 222.741C333.872 230.014 318.133 230.008 296.399 229.999C295.62 229.998 294.833 229.998 294.039 229.998C293.244 229.998 292.457 229.998 291.678 229.999C269.97 230.008 254.242 230.014 240.067 222.767C236.994 221.226 234.077 219.458 231.331 217.485C230.431 218.757 229.387 220.01 228.176 221.222C219.364 230.041 208.423 230.012 203.244 229.999C203.051 229.998 202.865 229.998 202.687 229.998H82.7891L81.3755 229.998C68.1935 230.001 59.4692 230.003 50.7073 227.606C27.2175 221.405 8.58688 202.758 2.39108 179.249C-0.0029304 170.48 -0.000998836 161.749 0.00191694 148.557L0.0021252 147.142V84.2863C0.0021252 84.1088 0.00163924 83.9228 0.0011315 83.7288C-0.0124115 78.5461 -0.0410271 67.5959 8.77061 58.777C17.5823 49.958 28.5234 49.9867 33.7018 50.0002C33.8957 50.0007 34.0815 50.0012 34.2588 50.0012H202.687C202.77 50.0012 202.854 50.0011 202.94 50.0009C203.039 50.0007 203.14 50.0005 203.244 50.0002C208.423 49.9867 219.364 49.958 228.176 58.777C229.381 59.983 230.42 61.2288 231.317 62.4944C234.077 60.5252 237.001 58.7694 240.068 57.2317C254.243 49.9847 269.97 49.9914 291.678 50.0005H291.694C292.468 50.0009 293.249 50.0012 294.039 50.0012C294.834 50.0012 295.621 50.0009 296.4 50.0005H296.415H296.43C318.132 49.9913 333.843 49.9846 347.869 57.0901L347.874 57.0928C355.849 61.1383 362.714 66.6376 368.288 73.2498C380.871 59.0444 399.213 50.0012 419.646 50.0012H422.501V34.2872C422.501 34.1097 422.501 33.9237 422.5 33.7297C422.487 28.547 422.458 17.5968 431.27 8.77789C440.081 -0.0410624 451.022 -0.0124217 456.201 0.00113245C456.395 0.00164061 456.58 0.00212697 456.758 0.00212697L457.275 0.00210518C462.636 0.0017714 466.001 0.00156295 469.545 0.339315L469.611 0.345597L469.677 0.352643C501.009 3.70652 526.08 28.1825 530.372 59.2521C531.591 58.5417 532.835 57.8684 534.103 57.2323C548.278 49.9847 564.006 49.9914 585.715 50.0005H585.73H585.745C586.514 50.0009 587.291 50.0012 588.075 50.0012C588.863 50.0012 589.643 50.0009 590.416 50.0006C612.17 49.9918 627.851 49.9855 641.997 57.0648L642.025 57.0787L642.053 57.0928C654.69 63.5033 664.54 73.5643 670.884 85.9197L670.913 85.9759ZM466.943 25.9507C464.711 25.7159 462.06 25.7159 456.758 25.7159C452.721 25.7159 450.702 25.7159 449.448 26.9712C448.194 28.2264 448.194 30.2467 448.194 34.2872V67.1438C448.194 71.1843 448.194 73.2046 446.939 74.4598C445.685 75.715 443.667 75.715 439.629 75.715H433.92H419.646C395.997 75.715 376.826 94.9025 376.826 118.571V161.428C376.826 185.097 395.997 204.284 419.646 204.284H433.92H448.194H462.467C486.116 204.284 505.288 185.097 505.288 161.428V74.2865C505.288 68.9797 505.288 66.3263 505.053 64.0926C502.94 43.9685 487.051 28.0658 466.943 25.9507ZM426.783 140C426.783 134.659 426.783 131.989 427.931 130C428.682 128.697 429.763 127.615 431.065 126.862C433.053 125.714 435.721 125.714 441.057 125.714C446.393 125.714 449.061 125.714 451.048 126.862C452.35 127.615 453.431 128.697 454.183 130C455.33 131.989 455.33 134.659 455.33 140C455.33 145.34 455.33 148.01 454.183 149.999C453.431 151.302 452.35 152.384 451.048 153.137C449.061 154.285 446.393 154.285 441.057 154.285C435.721 154.285 433.053 154.285 431.065 153.137C429.763 152.384 428.682 151.302 427.931 149.999C426.783 148.01 426.783 145.34 426.783 140ZM81.5349 76.9703C82.789 78.2255 82.789 80.2458 82.789 84.2863V143.571C82.789 145.543 84.3867 147.142 86.3575 147.142C88.3282 147.142 89.9259 145.543 89.9259 143.571V84.2863C89.9259 80.2458 89.9259 78.2255 91.1801 76.9703C92.4342 75.715 94.4528 75.715 98.49 75.715H138.456C142.493 75.715 144.512 75.715 145.766 76.9703C147.02 78.2255 147.02 80.2458 147.02 84.2863V143.571C147.02 145.543 148.618 147.142 150.589 147.142C152.559 147.142 154.157 145.543 154.157 143.571V84.2863C154.157 80.2458 154.157 78.2255 155.411 76.9703C156.666 75.715 158.684 75.715 162.721 75.715H202.687C206.725 75.715 208.743 75.715 209.997 76.9703C211.252 78.2255 211.252 80.2458 211.252 84.2863V195.713C211.252 199.753 211.252 201.774 209.997 203.029C208.743 204.284 206.725 204.284 202.687 204.284H154.157H147.02H89.9259H82.789C69.515 204.284 62.878 204.284 57.4326 202.824C42.6555 198.861 31.1132 187.309 27.1537 172.52C25.6946 167.07 25.6946 160.427 25.6946 147.142V84.2863C25.6946 80.2458 25.6946 78.2255 26.9488 76.9703C28.203 75.715 30.2216 75.715 34.2588 75.715H74.2249C78.2621 75.715 80.2807 75.715 81.5349 76.9703ZM230.192 94.8294C225.525 103.997 225.525 115.998 225.525 140C225.525 164.001 225.525 176.002 230.192 185.17C234.298 193.234 240.849 199.79 248.906 203.899C258.066 208.57 270.057 208.57 294.039 208.57C318.02 208.57 330.011 208.57 339.171 203.899C347.229 199.79 353.779 193.234 357.885 185.17C362.552 176.002 362.552 164.001 362.552 140C362.552 115.998 362.552 103.997 357.885 94.8294C353.779 86.7654 347.229 80.2092 339.171 76.1004C330.011 71.4294 318.02 71.4294 294.039 71.4294C270.057 71.4294 258.066 71.4294 248.906 76.1004C240.849 80.2092 234.298 86.7654 230.192 94.8294ZM279.765 101.429C279.765 99.0619 281.682 97.1432 284.047 97.1432H304.03C306.395 97.1432 308.312 99.0619 308.312 101.429V116.796C308.312 117.933 307.861 119.023 307.058 119.827L297.066 129.826C295.394 131.5 292.683 131.5 291.011 129.826L281.019 119.827C280.216 119.023 279.765 117.933 279.765 116.796V101.429ZM284.047 182.856C281.682 182.856 279.765 180.937 279.765 178.57V163.203C279.765 162.066 280.216 160.976 281.019 160.172L291.011 150.173C292.683 148.499 295.394 148.499 297.066 150.173L307.058 160.172C307.861 160.976 308.312 162.066 308.312 163.203V178.57C308.312 180.937 306.395 182.856 304.03 182.856H284.047ZM332.577 125.714C334.942 125.714 336.859 127.633 336.859 130V149.999C336.859 152.366 334.942 154.285 332.577 154.285H317.223C316.087 154.285 314.998 153.833 314.195 153.03L304.203 143.03C302.531 141.356 302.531 138.643 304.203 136.969L314.195 126.969C314.998 126.166 316.087 125.714 317.223 125.714H332.577ZM251.218 130C251.218 127.633 253.135 125.714 255.5 125.714H270.854C271.99 125.714 273.079 126.166 273.882 126.969L283.874 136.969C285.546 138.643 285.546 141.356 283.874 143.03L273.882 153.03C273.079 153.833 271.99 154.285 270.854 154.285H255.5C253.135 154.285 251.218 152.366 251.218 149.999V130ZM519.562 140C519.562 115.998 519.562 103.997 524.229 94.8294C528.334 86.7654 534.885 80.2092 542.942 76.1004C552.102 71.4294 564.093 71.4294 588.075 71.4294C612.057 71.4294 624.048 71.4294 633.208 76.1004C641.265 80.2092 647.816 86.7654 651.921 94.8294C656.588 103.997 656.588 115.998 656.588 140C656.588 164.001 656.588 176.002 651.921 185.17C647.816 193.234 641.265 199.79 633.208 203.899C624.048 208.57 612.057 208.57 588.075 208.57C564.093 208.57 552.102 208.57 542.942 203.899C534.885 199.79 528.334 193.234 524.229 185.17C519.562 176.002 519.562 164.001 519.562 140ZM588.075 95.7147C579.404 95.7147 572.374 102.75 572.374 111.429C572.374 120.107 579.404 127.143 588.075 127.143C596.746 127.143 603.776 120.107 603.776 111.429C603.776 102.75 596.746 95.7147 588.075 95.7147ZM572.374 168.57C572.374 177.249 579.404 184.284 588.075 184.284C596.746 184.284 603.776 177.249 603.776 168.57C603.776 159.892 596.746 152.856 588.075 152.856C579.404 152.856 572.374 159.892 572.374 168.57ZM632.323 140C632.323 131.321 625.294 124.286 616.622 124.286C607.951 124.286 600.921 131.321 600.921 140C600.921 148.678 607.951 155.714 616.622 155.714C625.294 155.714 632.323 148.678 632.323 140ZM559.528 124.286C550.856 124.286 543.827 131.321 543.827 140C543.827 148.678 550.856 155.714 559.528 155.714C568.199 155.714 575.229 148.678 575.229 140C575.229 131.321 568.199 124.286 559.528 124.286Z" fill="#D62000"/>
<path fill-rule="evenodd" clip-rule="evenodd" d="M321.999 71.9972C329.223 72.5766 334.557 73.7443 339.171 76.0976C347.229 80.2064 353.779 86.7626 357.885 94.8265C362.552 103.994 362.552 115.995 362.552 139.997C362.552 163.999 362.552 175.999 357.885 185.167C353.779 193.231 347.229 199.787 339.171 203.896C330.012 208.567 318.021 208.567 294.038 208.567C270.057 208.567 258.065 208.567 248.906 203.896C240.849 199.787 234.298 193.231 230.192 185.167C225.525 175.999 225.525 163.999 225.525 139.997C225.525 115.995 225.525 103.994 230.192 94.8265C234.298 86.7626 240.849 80.2064 248.906 76.0976C253.521 73.7443 258.854 72.5766 266.077 71.9972H321.999ZM456.758 25.7131C462.061 25.7131 464.711 25.7131 466.943 25.9479C487.051 28.063 502.94 43.9657 505.054 64.0898C505.288 66.3235 505.288 68.9769 505.288 74.2837V161.425C505.288 183.416 488.738 201.538 467.424 203.997H414.689C393.375 201.538 376.825 183.416 376.825 161.425V118.569C376.825 94.8997 395.997 75.7122 419.646 75.7122H433.92H439.629C443.667 75.7122 445.686 75.7122 446.939 74.457C448.193 73.2017 448.193 71.1815 448.193 67.1409V34.2844C448.193 30.2439 448.193 28.2236 449.448 26.9684C450.702 25.7131 452.721 25.7131 456.758 25.7131ZM208.103 203.997C208.9 203.815 209.507 203.516 209.997 203.026C211.252 201.771 211.252 199.751 211.252 195.71V84.2835C211.252 80.243 211.252 78.2227 209.997 76.9674C208.743 75.7122 206.725 75.7122 202.688 75.7122H162.722C158.685 75.7122 156.665 75.7122 155.411 76.9674C154.157 78.2227 154.157 80.243 154.157 84.2835V143.568C154.157 145.541 152.56 147.139 150.589 147.139C148.618 147.139 147.021 145.541 147.021 143.568V84.2835C147.021 80.243 147.021 78.2227 145.767 76.9674C144.512 75.7122 142.493 75.7122 138.456 75.7122H98.4902C94.4531 75.7122 92.4346 75.7122 91.1797 76.9674C89.9258 78.2227 89.9258 80.243 89.9258 84.2835V143.568C89.9258 145.541 88.3281 147.139 86.3574 147.139C84.3867 147.139 82.7891 145.541 82.7891 143.568V84.2835C82.7891 80.243 82.7891 78.2227 81.5352 76.9674C80.2803 75.7122 78.2617 75.7122 74.2246 75.7122H34.2588C30.2217 75.7122 28.2031 75.7122 26.9492 76.9674C25.6943 78.2227 25.6943 80.243 25.6943 84.2835V147.139C25.6943 160.425 25.6943 167.067 27.1533 172.517C31.1133 187.306 42.6553 198.858 57.4326 202.821C59.7227 203.435 62.2236 203.791 65.3408 203.997H208.103ZM427.931 129.997C426.783 131.986 426.783 134.656 426.783 139.997C426.783 145.337 426.783 148.008 427.931 149.997C428.683 151.3 429.764 152.382 431.065 153.134C433.053 154.282 435.721 154.282 441.057 154.282C446.393 154.282 449.061 154.282 451.048 153.134C452.351 152.382 453.432 151.3 454.183 149.997C455.33 148.008 455.33 145.337 455.33 139.997C455.33 134.656 455.33 131.986 454.183 129.997C453.432 128.694 452.351 127.612 451.048 126.86C449.061 125.711 446.393 125.711 441.057 125.711C435.721 125.711 433.053 125.711 431.065 126.86C429.764 127.612 428.683 128.694 427.931 129.997ZM524.229 94.8265C519.562 103.994 519.562 115.995 519.562 139.997C519.562 163.999 519.562 175.999 524.229 185.167C528.334 193.231 534.885 199.787 542.942 203.896C552.103 208.567 564.093 208.567 588.075 208.567C612.057 208.567 624.048 208.567 633.208 203.896C641.265 199.787 647.815 193.231 651.921 185.167C656.588 175.999 656.588 163.999 656.588 139.997C656.588 115.995 656.588 103.994 651.921 94.8265C647.815 86.7626 641.265 80.2064 633.208 76.0976C628.593 73.7443 623.26 72.5766 616.036 71.9972H560.114C552.891 72.5766 547.558 73.7443 542.942 76.0976C534.885 80.2064 528.334 86.7626 524.229 94.8265Z" fill="white"/>
<path fill-rule="evenodd" clip-rule="evenodd" d="M279.765 101.429C279.765 99.0618 281.682 97.1431 284.047 97.1431H304.03C306.395 97.1431 308.312 99.0618 308.312 101.429V116.796C308.312 117.933 307.861 119.023 307.058 119.826L297.067 129.826C295.394 131.5 292.683 131.5 291.011 129.826L281.019 119.826C280.216 119.023 279.765 117.933 279.765 116.796V101.429ZM284.047 182.856C281.682 182.856 279.765 180.937 279.765 178.57V163.203C279.765 162.066 280.216 160.976 281.019 160.172L291.011 150.173C292.683 148.499 295.394 148.499 297.067 150.173L307.058 160.172C307.861 160.976 308.312 162.066 308.312 163.203V178.57C308.312 180.937 306.395 182.856 304.03 182.856H284.047ZM332.577 125.714C334.942 125.714 336.859 127.633 336.859 130V149.999C336.859 152.366 334.942 154.285 332.577 154.285H317.223C316.087 154.285 314.998 153.833 314.195 153.03L304.203 143.03C302.531 141.356 302.531 138.643 304.203 136.969L314.195 126.969C314.998 126.165 316.087 125.714 317.223 125.714H332.577ZM251.218 130C251.218 127.633 253.135 125.714 255.5 125.714H270.854C271.99 125.714 273.079 126.165 273.882 126.969L283.874 136.969C285.546 138.643 285.546 141.356 283.874 143.03L273.882 153.03C273.079 153.833 271.99 154.285 270.854 154.285H255.5C253.135 154.285 251.218 152.366 251.218 149.999V130Z" fill="#C3C2CA"/>
<path fill-rule="evenodd" clip-rule="evenodd" d="M559.527 124.286C550.856 124.286 543.826 131.321 543.826 140C543.826 148.678 550.856 155.714 559.527 155.714C568.199 155.714 575.228 148.678 575.228 140C575.228 131.321 568.199 124.286 559.527 124.286Z" fill="#FFA722"/>
<path fill-rule="evenodd" clip-rule="evenodd" d="M572.374 168.57C572.374 177.249 579.404 184.284 588.075 184.284C596.746 184.284 603.776 177.249 603.776 168.57C603.776 159.892 596.746 152.856 588.075 152.856C579.404 152.856 572.374 159.892 572.374 168.57Z" fill="#26E1ED"/>
<path fill-rule="evenodd" clip-rule="evenodd" d="M632.323 140C632.323 131.321 625.293 124.286 616.622 124.286C607.95 124.286 600.921 131.321 600.921 140C600.921 148.678 607.95 155.714 616.622 155.714C625.293 155.714 632.323 148.678 632.323 140Z" fill="#FF3815"/>
<path fill-rule="evenodd" clip-rule="evenodd" d="M588.075 95.7146C579.404 95.7146 572.374 102.75 572.374 111.429C572.374 120.107 579.404 127.143 588.075 127.143C596.746 127.143 603.776 120.107 603.776 111.429C603.776 102.75 596.746 95.7146 588.075 95.7146Z" fill="#6100D4"/>
</svg>
