<svg width="300" height="300" viewBox="0 0 300 300" fill="none" xmlns="http://www.w3.org/2000/svg">
<g clip-path="url(#clip0_11_178)">
<mask id="mask0_11_178" style="mask-type:alpha" maskUnits="userSpaceOnUse" x="5" y="48" width="180" height="219">
<path d="M5 147.569L108.093 266.994L169.336 234.331L184.647 189.419L89.7198 60.8081L50.9324 48.5595L5 147.569Z" fill="#DF85FF" fill-opacity="0.5"/>
</mask>
<g mask="url(#mask0_11_178)">
<path d="M216.785 97.8152C216.785 97.8152 228.991 193.182 227.197 192.164C226.737 192.998 226.189 193.831 225.538 194.649C220.796 200.606 214.172 201.318 211.037 201.656C210.92 201.668 210.807 201.681 210.699 201.693L138.13 209.694L137.274 209.788L137.274 209.788C129.296 210.67 124.016 211.253 118.552 210.379C103.918 208.171 91.39 198.064 86.0621 184.166C84.0245 178.988 83.4397 173.673 82.556 165.642L82.4612 164.781L78.2424 126.518C78.2305 126.409 78.2177 126.296 78.2044 126.178C77.8483 123.024 77.0961 116.36 81.8375 110.404C86.5789 104.447 93.2031 103.734 96.3382 103.397C96.4556 103.385 96.5681 103.372 96.6754 103.361L198.618 92.1207L198.771 92.1036L198.955 92.0829C202.089 91.729 208.709 90.9815 214.635 95.7619C215.445 96.4156 216.158 97.1047 216.785 97.8152Z" fill="#450096"/>
<path fill-rule="evenodd" clip-rule="evenodd" d="M212.232 185.503C212.703 185.339 213.05 185.117 213.314 184.786C213.989 183.938 213.853 182.708 213.582 180.248L206.103 112.418C205.832 109.959 205.697 108.729 204.853 108.048C204.009 107.368 202.788 107.503 200.345 107.772L176.155 110.439C173.711 110.709 172.489 110.843 171.814 111.691C171.139 112.539 171.275 113.769 171.546 116.228L175.525 152.318C175.657 153.518 174.798 154.598 173.605 154.73C172.412 154.861 171.338 153.994 171.206 152.794L167.227 116.705C166.956 114.245 166.82 113.015 165.977 112.335C165.133 111.654 163.911 111.789 161.468 112.058L137.278 114.726C134.834 114.995 133.613 115.13 132.937 115.978C132.263 116.825 132.398 118.055 132.669 120.515L136.649 156.604C136.781 157.805 135.921 158.885 134.728 159.016C133.536 159.148 132.461 158.281 132.329 157.08L128.35 120.991C128.079 118.531 127.943 117.302 127.1 116.621C126.256 115.941 125.034 116.075 122.591 116.345L98.4012 119.012C95.9577 119.281 94.7359 119.416 94.0612 120.264C93.3859 121.112 93.5215 122.342 93.7927 124.801L98.0115 163.064C98.9031 171.151 99.349 175.195 100.598 178.416C103.987 187.154 111.749 193.416 120.959 194.842C122.386 195.063 123.924 195.113 125.824 195.03L212.232 185.503Z" fill="white"/>
</g>
<mask id="mask1_11_178" style="mask-type:alpha" maskUnits="userSpaceOnUse" x="89" y="21" width="185" height="169">
<path d="M273.45 78.1604L120.341 21L89.7198 60.8081L184.647 189.419L273.45 78.1604Z" fill="#EBB3FF" fill-opacity="0.5"/>
</mask>
<g mask="url(#mask1_11_178)">
<path d="M237.991 91.1752C237.991 91.1752 239.586 187.063 237.918 185.856C237.371 186.633 236.736 187.397 235.999 188.137C230.64 193.52 223.991 193.497 220.844 193.486C220.727 193.485 220.614 193.485 220.506 193.485L147.648 193.423L146.789 193.422L146.789 193.422C138.779 193.417 133.477 193.414 128.154 191.945C113.884 188.145 102.572 176.744 98.8194 162.38C97.3692 157.022 97.3749 151.688 97.3836 143.629L97.3844 142.765L97.4172 104.368C97.4173 104.259 97.4171 104.146 97.4169 104.027C97.4114 100.861 97.3997 94.1717 102.759 88.7889C108.118 83.4062 114.767 83.4293 117.913 83.4403C118.031 83.4407 118.144 83.4411 118.252 83.4412L220.6 83.5285L220.753 83.5285L220.938 83.5282C224.085 83.5226 230.734 83.5108 236.084 88.9027C236.815 89.6401 237.446 90.4017 237.991 91.1752Z" fill="#450096"/>
<path fill-rule="evenodd" clip-rule="evenodd" d="M223.81 177.604C224.295 177.494 224.664 177.311 224.962 177.012C225.725 176.246 225.726 175.012 225.728 172.544L225.786 104.475C225.788 102.007 225.79 100.773 225.028 100.005C224.266 99.238 223.04 99.2369 220.587 99.2348L196.301 99.2141C193.848 99.212 192.62 99.211 191.858 99.9772C191.095 100.743 191.094 101.977 191.092 104.446L191.061 140.662C191.06 141.866 190.089 142.842 188.891 142.841C187.693 142.84 186.723 141.863 186.725 140.658L186.755 104.442C186.758 101.974 186.759 100.74 185.997 99.9722C185.235 99.2047 184.008 99.2036 181.555 99.2015L157.269 99.1808C154.816 99.1787 153.59 99.1777 152.826 99.9439C152.064 100.71 152.063 101.944 152.061 104.412L152.03 140.628C152.029 141.833 151.057 142.809 149.86 142.808C148.662 142.807 147.692 141.829 147.693 140.625L147.724 104.409C147.726 101.94 147.727 100.706 146.966 99.9389C146.204 99.1714 144.977 99.1703 142.524 99.1682L118.238 99.1475C115.785 99.1454 114.558 99.1444 113.796 99.9106C113.033 100.677 113.032 101.911 113.029 104.379L112.997 142.777C112.99 150.892 112.986 154.95 113.87 158.28C116.269 167.316 123.276 174.379 132.254 176.808C133.645 177.184 135.165 177.403 137.059 177.53L223.81 177.604Z" fill="white"/>
</g>
<mask id="mask2_11_178" style="mask-type:alpha" maskUnits="userSpaceOnUse" x="184" y="78" width="110" height="174">
<path d="M260.179 251.682L293.863 178.19L184.646 189.418L212.205 234.33L260.179 251.682Z" fill="#E496FF" fill-opacity="0.5"/>
<path d="M293.863 178.19L273.448 78.1596L184.646 189.418L293.863 178.19Z" fill="#E496FF" fill-opacity="0.5"/>
</mask>
<g mask="url(#mask2_11_178)">
<path d="M252.222 123.162C252.222 123.162 235.849 217.655 234.436 216.158C233.753 216.818 232.986 217.451 232.124 218.039C225.852 222.324 219.326 221.057 216.236 220.458C216.121 220.436 216.01 220.414 215.904 220.394L144.344 206.701L143.501 206.539L143.5 206.539C135.633 205.036 130.425 204.041 125.471 201.602C112.164 195.198 103.185 181.883 102.186 167.07C101.764 161.535 102.768 156.297 104.284 148.382L104.447 147.533L111.663 109.82C111.684 109.713 111.705 109.602 111.727 109.485C112.314 106.374 113.554 99.8007 119.825 95.5158C126.097 91.2308 132.624 92.4975 135.713 93.097C135.829 93.1195 135.939 93.141 136.045 93.1613L236.569 112.397L236.72 112.426L236.902 112.46C239.995 113.043 246.528 114.276 250.775 120.573C251.355 121.434 251.832 122.301 252.222 123.162Z" fill="#450096"/>
<path fill-rule="evenodd" clip-rule="evenodd" d="M222.122 205.412C222.618 205.394 223.015 205.284 223.363 205.046C224.257 204.436 224.489 203.223 224.952 200.799L237.745 133.944C238.209 131.52 238.441 130.308 237.836 129.411C237.232 128.515 236.028 128.284 233.618 127.823L209.765 123.259C207.356 122.798 206.15 122.567 205.257 123.177C204.365 123.787 204.133 124.999 203.669 127.424L196.863 162.994C196.636 164.177 195.499 164.954 194.323 164.729C193.147 164.504 192.377 163.362 192.604 162.179L199.41 126.609C199.874 124.184 200.106 122.972 199.502 122.076C198.897 121.179 197.692 120.949 195.282 120.488L171.429 115.923C169.02 115.462 167.815 115.232 166.922 115.842C166.029 116.451 165.797 117.664 165.334 120.088L158.527 155.658C158.301 156.842 157.163 157.619 155.987 157.394C154.811 157.169 154.041 156.027 154.268 154.843L161.074 119.273C161.538 116.849 161.77 115.636 161.166 114.74C160.561 113.844 159.356 113.613 156.947 113.152L133.094 108.588C130.684 108.127 129.479 107.896 128.587 108.506C127.694 109.116 127.462 110.328 126.998 112.752L119.781 150.466C118.256 158.436 117.493 162.422 117.738 165.859C118.404 175.184 123.966 183.433 132.331 187.499C133.627 188.129 135.079 188.628 136.916 189.108L222.122 205.412Z" fill="white"/>
</g>
<path d="M119.625 21.2845L51.5557 48.3272C51.0797 48.5163 50.6944 48.8808 50.4792 49.3456L5.54204 146.399C5.21203 147.111 5.32976 147.951 5.84301 148.546L107.593 266.415C107.915 266.788 108.363 267.029 108.851 267.092L194.332 278.154C194.674 278.198 195.022 278.153 195.342 278.024L259.444 251.982C259.917 251.79 260.298 251.424 260.51 250.961L293.593 178.6C293.769 178.214 293.818 177.783 293.733 177.367L273.672 79.2459C273.533 78.5706 273.057 78.014 272.412 77.7729L121.063 21.2695C120.599 21.0961 120.086 21.1014 119.625 21.2845Z" fill="#AB3CD2" fill-opacity="0.5"/>
<path d="M119.625 21.2845L51.5557 48.3272C51.0797 48.5163 50.6944 48.8808 50.4792 49.3456L5.54204 146.399C5.21203 147.111 5.32976 147.951 5.84301 148.546L107.593 266.415C107.915 266.788 108.363 267.029 108.851 267.092L194.332 278.154C194.674 278.198 195.022 278.153 195.342 278.024L259.444 251.982C259.917 251.79 260.298 251.424 260.51 250.961L293.593 178.6C293.769 178.214 293.818 177.783 293.733 177.367L273.672 79.2459C273.533 78.5706 273.057 78.014 272.412 77.7729L121.063 21.2695C120.599 21.0961 120.086 21.1014 119.625 21.2845Z" stroke="#DB71FF"/>
<path d="M194.854 278.222L260.18 251.683L212.206 234.331L194.854 278.222Z" fill="#C64FF0" fill-opacity="0.5"/>
<path d="M108.093 266.994L194.854 278.222L212.206 234.331H169.336L108.093 266.994Z" fill="#C64FF0" fill-opacity="0.5"/>
<path d="M184.647 189.419L212.206 234.331H169.336L184.647 189.419Z" fill="#D477F4" fill-opacity="0.5"/>
<path d="M260.18 251.683L293.864 178.191L184.647 189.419L212.206 234.331L260.18 251.683Z" fill="#E496FF" fill-opacity="0.5"/>
<path d="M120.341 21L50.9324 48.5595L89.7198 60.8081L120.341 21Z" fill="#FCF2FF"/>
<path d="M5 147.569L108.093 266.994L169.336 234.331L184.647 189.419L89.7198 60.8081L50.9324 48.5595L5 147.569Z" fill="#DF85FF" fill-opacity="0.5"/>
<path d="M293.864 178.191L273.45 78.1604L184.647 189.419L293.864 178.191Z" fill="#E496FF" fill-opacity="0.5"/>
<path d="M273.45 78.1604L120.341 21L89.7198 60.8081L184.647 189.419L273.45 78.1604Z" fill="#EBB3FF" fill-opacity="0.5"/>
<path d="M179.543 180.232L139.735 128.686C150.963 144.337 174.235 177.068 177.502 182.784C180.768 188.5 180.904 192.651 180.564 194.012L176.991 211.875C178.863 208.302 183.422 200.034 184.647 197.585C185.872 195.135 186.858 196.564 187.199 197.585L200.978 215.958C197.576 208.643 191.486 195.441 190.261 192.991C189.036 190.542 189.75 188.228 190.261 187.378L211.186 156.246C205.231 162.71 192.506 176.558 189.24 180.232C185.974 183.907 181.415 181.764 179.543 180.232Z" fill="white" fill-opacity="0.6"/>
<path d="M273.45 78.1604L240.786 65.9117C249.633 69.6544 267.631 77.3438 268.856 78.1604C269.367 78.5006 270.387 79.1811 269.877 80.2018L261.201 93.4712C263.923 91.0895 269.673 86.0199 270.898 84.7951C272.123 83.5702 272.939 82.7536 273.45 84.2847L280.084 110.823L273.45 78.1604Z" fill="white" fill-opacity="0.5"/>
<path d="M93.8026 62.8496L104.01 80.2018C100.607 76.1189 93.1902 67.3407 90.7405 64.891C88.2908 62.4413 86.9979 61.4886 86.6576 61.3185L76.4504 56.7252C78.4919 57.0655 83.2893 57.848 86.1473 58.2563C89.0053 58.6646 90.4003 57.746 90.7405 57.2356L101.458 45.4973C99.2465 49.4101 94.6192 57.6439 93.8026 59.277C92.9861 60.9102 93.4624 62.3392 93.8026 62.8496Z" fill="white"/>
<path d="M166.784 234.331L156.067 241.476C159.299 240.115 166.286 236.875 167.805 235.862C169.336 234.841 170.357 234.841 171.377 234.841L176.481 234.331C175.971 234.161 174.542 233.718 172.909 233.31C171.275 232.902 171.207 231.779 171.377 231.268L172.909 224.123L169.336 231.268C168.519 232.902 167.295 233.99 166.784 234.331Z" fill="white" fill-opacity="0.1"/>
<path d="M211.186 231.268L206.592 225.144C207.103 226.505 208.328 229.635 209.144 231.268C209.961 232.902 208.123 233.31 207.103 233.31L194.854 234.331C198.937 234.841 207.511 235.351 209.144 235.351C210.777 235.351 213.057 235.692 213.737 235.862L223.434 238.414C221.563 237.393 217.31 235.147 215.268 234.331C213.227 233.514 211.696 231.949 211.186 231.268Z" fill="white" fill-opacity="0.2"/>
<path d="M10.614 141.955L20.3108 114.396L5 147.569L36.6423 184.315C30.0077 175.469 14.5948 155.837 12.1451 152.163C9.69533 148.488 10.1036 143.827 10.614 141.955Z" fill="white" fill-opacity="0.5"/>
<path d="M105.031 258.828L85.637 240.965L108.093 266.994L143.308 271.587C137.353 270.226 124.424 267.3 120.341 266.483C116.259 265.667 117.279 264.442 118.3 263.932L137.694 251.173C131.229 253.724 117.279 259.134 113.196 260.359C109.114 261.584 106.051 259.849 105.031 258.828Z" fill="white" fill-opacity="0.3"/>
<path d="M260.18 251.683L268.346 233.82C266.475 236.882 261.915 245.048 260.691 247.09C259.466 249.131 257.458 248.961 256.608 248.621L245.89 246.579C247.251 247.43 250.381 249.437 252.014 250.662C253.648 251.887 252.695 252.874 252.014 253.214L235.172 261.89L260.18 251.683Z" fill="white" fill-opacity="0.3"/>
<path d="M293.864 178.191L290.291 160.328C290.462 163.22 290.904 169.821 291.312 173.087C291.72 176.354 290.802 179.552 290.291 180.743L285.188 197.074L293.864 178.191Z" fill="white" fill-opacity="0.4"/>
<path d="M123.914 24.0622L136.673 27.1243L120.341 21L105.031 27.1243C107.753 26.4438 113.196 24.5725 115.238 24.0622C117.009 23.6193 116.599 24.0622 116.259 24.5725L110.645 33.759C113.537 31.0371 119.627 25.3891 120.852 24.5725C122.077 23.7559 123.404 23.892 123.914 24.0622Z" fill="white"/>
<path d="M50.9324 48.5595L44.8081 61.8289C46.5093 59.1069 50.1159 53.3569 50.9324 52.132C51.749 50.9071 53.3141 50.9412 53.9946 51.1113L67.264 53.6631C65.0524 52.4723 60.221 49.8864 58.5878 49.0698C56.9547 48.2533 57.5671 47.3686 58.0775 47.0284L70.3261 40.9041L50.9324 48.5595Z" fill="white"/>
<mask id="mask3_11_178" style="mask-type:alpha" maskUnits="userSpaceOnUse" x="5" y="48" width="180" height="219">
<path d="M5 147.569L108.093 266.994L169.336 234.331L184.647 189.419L89.7198 60.8081L50.9324 48.5595L5 147.569Z" fill="#DF85FF" fill-opacity="0.5"/>
</mask>
<g mask="url(#mask3_11_178)">
<path d="M216.785 97.8152C216.785 97.8152 228.991 193.182 227.197 192.164C226.737 192.998 226.189 193.831 225.538 194.649C220.796 200.606 214.172 201.318 211.037 201.656C210.92 201.668 210.807 201.681 210.699 201.693L138.13 209.694L137.274 209.788L137.274 209.788C129.296 210.67 124.016 211.253 118.552 210.379C103.918 208.171 91.39 198.064 86.0621 184.166C84.0245 178.988 83.4397 173.673 82.556 165.642L82.4612 164.781L78.2424 126.518C78.2305 126.409 78.2177 126.296 78.2044 126.178C77.8483 123.024 77.0961 116.36 81.8375 110.404C86.5789 104.447 93.2031 103.734 96.3382 103.397C96.4556 103.385 96.5681 103.372 96.6754 103.361L198.618 92.1207L198.771 92.1036L198.955 92.0829C202.089 91.729 208.709 90.9815 214.635 95.7619C215.445 96.4156 216.158 97.1047 216.785 97.8152Z" fill="#450096"/>
<path fill-rule="evenodd" clip-rule="evenodd" d="M212.232 185.503C212.703 185.339 213.05 185.117 213.314 184.786C213.989 183.938 213.853 182.708 213.582 180.248L206.103 112.418C205.832 109.959 205.697 108.729 204.853 108.048C204.009 107.368 202.788 107.503 200.345 107.772L176.155 110.439C173.711 110.709 172.489 110.843 171.814 111.691C171.139 112.539 171.275 113.769 171.546 116.228L175.525 152.318C175.657 153.518 174.798 154.598 173.605 154.73C172.412 154.861 171.338 153.994 171.206 152.794L167.227 116.705C166.956 114.245 166.82 113.015 165.977 112.335C165.133 111.654 163.911 111.789 161.468 112.058L137.278 114.726C134.834 114.995 133.613 115.13 132.937 115.978C132.263 116.825 132.398 118.055 132.669 120.515L136.649 156.604C136.781 157.805 135.921 158.885 134.728 159.016C133.536 159.148 132.461 158.281 132.329 157.08L128.35 120.991C128.079 118.531 127.943 117.302 127.1 116.621C126.256 115.941 125.034 116.075 122.591 116.345L98.4012 119.012C95.9577 119.281 94.7359 119.416 94.0612 120.264C93.3859 121.112 93.5215 122.342 93.7927 124.801L98.0115 163.064C98.9031 171.151 99.349 175.195 100.598 178.416C103.987 187.154 111.749 193.416 120.959 194.842C122.386 195.063 123.924 195.113 125.824 195.03L212.232 185.503Z" fill="white"/>
</g>
<mask id="mask4_11_178" style="mask-type:alpha" maskUnits="userSpaceOnUse" x="89" y="21" width="185" height="169">
<path d="M273.45 78.1604L120.341 21L89.7198 60.8081L184.647 189.419L273.45 78.1604Z" fill="#EBB3FF" fill-opacity="0.5"/>
</mask>
<g mask="url(#mask4_11_178)">
<path d="M237.991 91.1752C237.991 91.1752 239.586 187.063 237.918 185.856C237.371 186.633 236.736 187.397 235.999 188.137C230.64 193.52 223.991 193.497 220.844 193.486C220.727 193.485 220.614 193.485 220.506 193.485L147.648 193.423L146.789 193.422L146.789 193.422C138.779 193.417 133.477 193.414 128.154 191.945C113.884 188.145 102.572 176.744 98.8194 162.38C97.3692 157.022 97.3749 151.688 97.3836 143.629L97.3844 142.765L97.4172 104.368C97.4173 104.259 97.4171 104.146 97.4169 104.027C97.4114 100.861 97.3997 94.1717 102.759 88.7889C108.118 83.4062 114.767 83.4293 117.913 83.4403C118.031 83.4407 118.144 83.4411 118.252 83.4412L220.6 83.5285L220.753 83.5285L220.938 83.5282C224.085 83.5226 230.734 83.5108 236.084 88.9027C236.815 89.6401 237.446 90.4017 237.991 91.1752Z" fill="#450096"/>
<path fill-rule="evenodd" clip-rule="evenodd" d="M223.81 177.604C224.295 177.494 224.664 177.311 224.962 177.012C225.725 176.246 225.726 175.012 225.728 172.544L225.786 104.475C225.788 102.007 225.79 100.773 225.028 100.005C224.266 99.238 223.04 99.2369 220.587 99.2348L196.301 99.2141C193.848 99.212 192.62 99.211 191.858 99.9772C191.095 100.743 191.094 101.977 191.092 104.446L191.061 140.662C191.06 141.866 190.089 142.842 188.891 142.841C187.693 142.84 186.723 141.863 186.725 140.658L186.755 104.442C186.758 101.974 186.759 100.74 185.997 99.9722C185.235 99.2047 184.008 99.2036 181.555 99.2015L157.269 99.1808C154.816 99.1787 153.59 99.1777 152.826 99.9439C152.064 100.71 152.063 101.944 152.061 104.412L152.03 140.628C152.029 141.833 151.057 142.809 149.86 142.808C148.662 142.807 147.692 141.829 147.693 140.625L147.724 104.409C147.726 101.94 147.727 100.706 146.966 99.9389C146.204 99.1714 144.977 99.1703 142.524 99.1682L118.238 99.1475C115.785 99.1454 114.558 99.1444 113.796 99.9106C113.033 100.677 113.032 101.911 113.029 104.379L112.997 142.777C112.99 150.892 112.986 154.95 113.87 158.28C116.269 167.316 123.276 174.379 132.254 176.808C133.645 177.184 135.165 177.403 137.059 177.53L223.81 177.604Z" fill="white"/>
</g>
<mask id="mask5_11_178" style="mask-type:alpha" maskUnits="userSpaceOnUse" x="184" y="78" width="110" height="174">
<path d="M260.179 251.682L293.863 178.19L184.646 189.418L212.205 234.33L260.179 251.682Z" fill="#E496FF" fill-opacity="0.5"/>
<path d="M293.863 178.19L273.448 78.1596L184.646 189.418L293.863 178.19Z" fill="#E496FF" fill-opacity="0.5"/>
</mask>
<g mask="url(#mask5_11_178)">
<path d="M252.222 123.162C252.222 123.162 235.849 217.655 234.436 216.158C233.753 216.818 232.986 217.451 232.124 218.039C225.852 222.324 219.326 221.057 216.236 220.458C216.121 220.436 216.01 220.414 215.904 220.394L144.344 206.701L143.501 206.539L143.5 206.539C135.633 205.036 130.425 204.041 125.471 201.602C112.164 195.198 103.185 181.883 102.186 167.07C101.764 161.535 102.768 156.297 104.284 148.382L104.447 147.533L111.663 109.82C111.684 109.713 111.705 109.602 111.727 109.485C112.314 106.374 113.554 99.8007 119.825 95.5158C126.097 91.2308 132.624 92.4975 135.713 93.097C135.829 93.1195 135.939 93.141 136.045 93.1613L236.569 112.397L236.72 112.426L236.902 112.46C239.995 113.043 246.528 114.276 250.775 120.573C251.355 121.434 251.832 122.301 252.222 123.162Z" fill="#450096"/>
<path fill-rule="evenodd" clip-rule="evenodd" d="M222.122 205.412C222.618 205.394 223.015 205.284 223.363 205.046C224.257 204.436 224.489 203.223 224.952 200.799L237.745 133.944C238.209 131.52 238.441 130.308 237.836 129.411C237.232 128.515 236.028 128.284 233.618 127.823L209.765 123.259C207.356 122.798 206.15 122.567 205.257 123.177C204.365 123.787 204.133 124.999 203.669 127.424L196.863 162.994C196.636 164.177 195.499 164.954 194.323 164.729C193.147 164.504 192.377 163.362 192.604 162.179L199.41 126.609C199.874 124.184 200.106 122.972 199.502 122.076C198.897 121.179 197.692 120.949 195.282 120.488L171.429 115.923C169.02 115.462 167.815 115.232 166.922 115.842C166.029 116.451 165.797 117.664 165.334 120.088L158.527 155.658C158.301 156.842 157.163 157.619 155.987 157.394C154.811 157.169 154.041 156.027 154.268 154.843L161.074 119.273C161.538 116.849 161.77 115.636 161.166 114.74C160.561 113.844 159.356 113.613 156.947 113.152L133.094 108.588C130.684 108.127 129.479 107.896 128.587 108.506C127.694 109.116 127.462 110.328 126.998 112.752L119.781 150.466C118.256 158.436 117.493 162.422 117.738 165.859C118.404 175.184 123.966 183.433 132.331 187.499C133.627 188.129 135.079 188.628 136.916 189.108L222.122 205.412Z" fill="white"/>
</g>
</g>
<defs>
<clipPath id="clip0_11_178">
<rect width="300" height="300" fill="white"/>
</clipPath>
</defs>
</svg>
